<svg width="30" height="30" viewBox="0 0 30 30" fill="none" xmlns="http://www.w3.org/2000/svg">
<circle cx="15" cy="15" r="15" fill="#B53131"/>
<path d="M7.8 22.5C7.305 22.5 6.8814 22.3166 6.5292 21.9497C6.177 21.5828 6.0006 21.1412 6 20.625V9.375C6 8.85937 6.1764 8.41812 6.5292 8.05125C6.882 7.68437 7.3056 7.50062 7.8 7.5H22.2C22.695 7.5 23.1189 7.68375 23.4717 8.05125C23.8245 8.41875 24.0006 8.86 24 9.375V20.625C24 21.1406 23.8239 21.5822 23.4717 21.9497C23.1195 22.3172 22.6956 22.5006 22.2 22.5H7.8ZM15 15.9375L22.2 11.25V9.375L15 14.0625L7.8 9.375V11.25L15 15.9375Z" fill="white"/>
</svg>
