<svg width="285" height="174" viewBox="0 0 285 174" fill="none" xmlns="http://www.w3.org/2000/svg">
<ellipse cx="2.89198" cy="3.08157" rx="2.89198" ry="3.08157" fill="#B7B7B7"/>
<ellipse cx="25.3048" cy="3.08157" rx="2.89198" ry="3.08157" fill="#B7B7B7"/>
<ellipse cx="47.7177" cy="3.08157" rx="2.89198" ry="3.08157" fill="#B7B7B7"/>
<ellipse cx="70.1305" cy="3.08157" rx="2.89198" ry="3.08157" fill="#B7B7B7"/>
<ellipse cx="92.5434" cy="3.08157" rx="2.89198" ry="3.08157" fill="#B7B7B7"/>
<ellipse cx="114.956" cy="3.08157" rx="2.89198" ry="3.08157" fill="#B7B7B7"/>
<ellipse cx="137.369" cy="3.08157" rx="2.89198" ry="3.08157" fill="#B7B7B7"/>
<ellipse cx="159.782" cy="3.08157" rx="2.89198" ry="3.08157" fill="#B7B7B7"/>
<ellipse cx="182.195" cy="3.08157" rx="2.89198" ry="3.08157" fill="#B7B7B7"/>
<ellipse cx="204.608" cy="3.08157" rx="2.89198" ry="3.08157" fill="#B7B7B7"/>
<ellipse cx="227.02" cy="3.08157" rx="2.89198" ry="3.08157" fill="#B7B7B7"/>
<ellipse cx="249.433" cy="3.08157" rx="2.89198" ry="3.08157" fill="#B7B7B7"/>
<ellipse cx="271.846" cy="3.08157" rx="2.89198" ry="3.08157" fill="#B7B7B7"/>
<ellipse cx="2.89198" cy="26.9641" rx="2.89198" ry="3.08157" fill="#B7B7B7"/>
<ellipse cx="25.3048" cy="26.9641" rx="2.89198" ry="3.08157" fill="#B7B7B7"/>
<ellipse cx="47.7177" cy="26.9641" rx="2.89198" ry="3.08157" fill="#B7B7B7"/>
<ellipse cx="70.1305" cy="26.9641" rx="2.89198" ry="3.08157" fill="#B7B7B7"/>
<ellipse cx="92.5434" cy="26.9641" rx="2.89198" ry="3.08157" fill="#B7B7B7"/>
<ellipse cx="114.956" cy="26.9641" rx="2.89198" ry="3.08157" fill="#B7B7B7"/>
<ellipse cx="137.369" cy="26.9641" rx="2.89198" ry="3.08157" fill="#B7B7B7"/>
<ellipse cx="159.782" cy="26.9641" rx="2.89198" ry="3.08157" fill="#B7B7B7"/>
<ellipse cx="182.195" cy="26.9641" rx="2.89198" ry="3.08157" fill="#B7B7B7"/>
<ellipse cx="204.608" cy="26.9641" rx="2.89198" ry="3.08157" fill="#B7B7B7"/>
<ellipse cx="227.02" cy="26.9641" rx="2.89198" ry="3.08157" fill="#B7B7B7"/>
<ellipse cx="249.433" cy="26.9641" rx="2.89198" ry="3.08157" fill="#B7B7B7"/>
<ellipse cx="271.846" cy="26.9641" rx="2.89198" ry="3.08157" fill="#B7B7B7"/>
<ellipse cx="2.89198" cy="50.846" rx="2.89198" ry="3.08157" fill="#B7B7B7"/>
<ellipse cx="25.3048" cy="50.846" rx="2.89198" ry="3.08157" fill="#B7B7B7"/>
<ellipse cx="47.7177" cy="50.846" rx="2.89198" ry="3.08157" fill="#B7B7B7"/>
<ellipse cx="70.1305" cy="50.846" rx="2.89198" ry="3.08157" fill="#B7B7B7"/>
<ellipse cx="92.5434" cy="50.846" rx="2.89198" ry="3.08157" fill="#B7B7B7"/>
<ellipse cx="114.956" cy="50.846" rx="2.89198" ry="3.08157" fill="#B7B7B7"/>
<ellipse cx="137.369" cy="50.846" rx="2.89198" ry="3.08157" fill="#B7B7B7"/>
<ellipse cx="159.782" cy="50.846" rx="2.89198" ry="3.08157" fill="#B7B7B7"/>
<ellipse cx="182.195" cy="50.846" rx="2.89198" ry="3.08157" fill="#B7B7B7"/>
<ellipse cx="204.608" cy="50.846" rx="2.89198" ry="3.08157" fill="#B7B7B7"/>
<ellipse cx="227.02" cy="50.846" rx="2.89198" ry="3.08157" fill="#B7B7B7"/>
<ellipse cx="249.433" cy="50.846" rx="2.89198" ry="3.08157" fill="#B7B7B7"/>
<ellipse cx="271.846" cy="50.846" rx="2.89198" ry="3.08157" fill="#B7B7B7"/>
<ellipse cx="2.89198" cy="74.7279" rx="2.89198" ry="3.08157" fill="#B7B7B7"/>
<ellipse cx="25.3048" cy="74.7279" rx="2.89198" ry="3.08157" fill="#B7B7B7"/>
<ellipse cx="47.7177" cy="74.7279" rx="2.89198" ry="3.08157" fill="#B7B7B7"/>
<ellipse cx="70.1305" cy="74.7279" rx="2.89198" ry="3.08157" fill="#B7B7B7"/>
<ellipse cx="92.5434" cy="74.7279" rx="2.89198" ry="3.08157" fill="#B7B7B7"/>
<ellipse cx="114.956" cy="74.7279" rx="2.89198" ry="3.08157" fill="#B7B7B7"/>
<ellipse cx="137.369" cy="74.7279" rx="2.89198" ry="3.08157" fill="#B7B7B7"/>
<ellipse cx="159.782" cy="74.7279" rx="2.89198" ry="3.08157" fill="#B7B7B7"/>
<ellipse cx="182.195" cy="74.7279" rx="2.89198" ry="3.08157" fill="#B7B7B7"/>
<ellipse cx="204.608" cy="74.7279" rx="2.89198" ry="3.08157" fill="#B7B7B7"/>
<ellipse cx="227.02" cy="74.7279" rx="2.89198" ry="3.08157" fill="#B7B7B7"/>
<ellipse cx="249.433" cy="74.7279" rx="2.89198" ry="3.08157" fill="#B7B7B7"/>
<ellipse cx="271.846" cy="74.7279" rx="2.89198" ry="3.08157" fill="#B7B7B7"/>
<ellipse cx="2.89198" cy="98.6103" rx="2.89198" ry="3.08157" fill="#B7B7B7"/>
<ellipse cx="25.3048" cy="98.6103" rx="2.89198" ry="3.08157" fill="#B7B7B7"/>
<ellipse cx="47.7177" cy="98.6103" rx="2.89198" ry="3.08157" fill="#B7B7B7"/>
<ellipse cx="70.1305" cy="98.6103" rx="2.89198" ry="3.08157" fill="#B7B7B7"/>
<ellipse cx="92.5434" cy="98.6103" rx="2.89198" ry="3.08157" fill="#B7B7B7"/>
<ellipse cx="114.956" cy="98.6103" rx="2.89198" ry="3.08157" fill="#B7B7B7"/>
<ellipse cx="137.369" cy="98.6103" rx="2.89198" ry="3.08157" fill="#B7B7B7"/>
<ellipse cx="159.782" cy="98.6103" rx="2.89198" ry="3.08157" fill="#B7B7B7"/>
<ellipse cx="182.195" cy="98.6103" rx="2.89198" ry="3.08157" fill="#B7B7B7"/>
<ellipse cx="204.608" cy="98.6103" rx="2.89198" ry="3.08157" fill="#B7B7B7"/>
<ellipse cx="227.02" cy="98.6103" rx="2.89198" ry="3.08157" fill="#B7B7B7"/>
<ellipse cx="249.433" cy="98.6103" rx="2.89198" ry="3.08157" fill="#B7B7B7"/>
<ellipse cx="271.846" cy="98.6103" rx="2.89198" ry="3.08157" fill="#B7B7B7"/>
<ellipse cx="2.89198" cy="122.492" rx="2.89198" ry="3.08157" fill="#B7B7B7"/>
<ellipse cx="25.3048" cy="122.492" rx="2.89198" ry="3.08157" fill="#B7B7B7"/>
<ellipse cx="47.7177" cy="122.492" rx="2.89198" ry="3.08157" fill="#B7B7B7"/>
<ellipse cx="70.1305" cy="122.492" rx="2.89198" ry="3.08157" fill="#B7B7B7"/>
<ellipse cx="92.5434" cy="122.492" rx="2.89198" ry="3.08157" fill="#B7B7B7"/>
<ellipse cx="114.956" cy="122.492" rx="2.89198" ry="3.08157" fill="#B7B7B7"/>
<ellipse cx="137.369" cy="122.492" rx="2.89198" ry="3.08157" fill="#B7B7B7"/>
<ellipse cx="159.782" cy="122.492" rx="2.89198" ry="3.08157" fill="#B7B7B7"/>
<ellipse cx="182.195" cy="122.492" rx="2.89198" ry="3.08157" fill="#B7B7B7"/>
<ellipse cx="204.608" cy="122.492" rx="2.89198" ry="3.08157" fill="#B7B7B7"/>
<ellipse cx="227.02" cy="122.492" rx="2.89198" ry="3.08157" fill="#B7B7B7"/>
<ellipse cx="249.433" cy="122.492" rx="2.89198" ry="3.08157" fill="#B7B7B7"/>
<ellipse cx="271.846" cy="122.492" rx="2.89198" ry="3.08157" fill="#B7B7B7"/>
<ellipse cx="2.89198" cy="146.374" rx="2.89198" ry="3.08157" fill="#B7B7B7"/>
<ellipse cx="25.3048" cy="146.374" rx="2.89198" ry="3.08157" fill="#B7B7B7"/>
<ellipse cx="47.7177" cy="146.374" rx="2.89198" ry="3.08157" fill="#B7B7B7"/>
<ellipse cx="70.1305" cy="146.374" rx="2.89198" ry="3.08157" fill="#B7B7B7"/>
<ellipse cx="92.5434" cy="146.374" rx="2.89198" ry="3.08157" fill="#B7B7B7"/>
<ellipse cx="114.956" cy="146.374" rx="2.89198" ry="3.08157" fill="#B7B7B7"/>
<ellipse cx="137.369" cy="146.374" rx="2.89198" ry="3.08157" fill="#B7B7B7"/>
<ellipse cx="159.782" cy="146.374" rx="2.89198" ry="3.08157" fill="#B7B7B7"/>
<ellipse cx="182.195" cy="146.374" rx="2.89198" ry="3.08157" fill="#B7B7B7"/>
<ellipse cx="204.608" cy="146.374" rx="2.89198" ry="3.08157" fill="#B7B7B7"/>
<ellipse cx="227.02" cy="146.374" rx="2.89198" ry="3.08157" fill="#B7B7B7"/>
<ellipse cx="249.433" cy="146.374" rx="2.89198" ry="3.08157" fill="#B7B7B7"/>
<ellipse cx="271.846" cy="146.374" rx="2.89198" ry="3.08157" fill="#B7B7B7"/>
<ellipse cx="2.89198" cy="170.257" rx="2.89198" ry="3.08157" fill="#B7B7B7"/>
<ellipse cx="25.3048" cy="170.257" rx="2.89198" ry="3.08157" fill="#B7B7B7"/>
<ellipse cx="47.7177" cy="170.257" rx="2.89198" ry="3.08157" fill="#B7B7B7"/>
<ellipse cx="70.1305" cy="170.257" rx="2.89198" ry="3.08157" fill="#B7B7B7"/>
<ellipse cx="92.5434" cy="170.257" rx="2.89198" ry="3.08157" fill="#B7B7B7"/>
<ellipse cx="114.956" cy="170.257" rx="2.89198" ry="3.08157" fill="#B7B7B7"/>
<ellipse cx="137.369" cy="170.257" rx="2.89198" ry="3.08157" fill="#B7B7B7"/>
<ellipse cx="159.782" cy="170.257" rx="2.89198" ry="3.08157" fill="#B7B7B7"/>
<ellipse cx="182.195" cy="170.257" rx="2.89198" ry="3.08157" fill="#B7B7B7"/>
<ellipse cx="204.608" cy="170.257" rx="2.89198" ry="3.08157" fill="#B7B7B7"/>
<ellipse cx="227.02" cy="170.257" rx="2.89198" ry="3.08157" fill="#B7B7B7"/>
<ellipse cx="249.433" cy="170.257" rx="2.89198" ry="3.08157" fill="#B7B7B7"/>
<ellipse cx="271.846" cy="170.257" rx="2.89198" ry="3.08157" fill="#B7B7B7"/>
</svg>
