<svg width="30" height="30" viewBox="0 0 30 30" fill="none" xmlns="http://www.w3.org/2000/svg">
<circle cx="15" cy="15" r="15" fill="#181818"/>
<path fill-rule="evenodd" clip-rule="evenodd" d="M22.0219 17.0098C22.0219 17.0098 23.4772 18.4065 23.8372 19.0528C23.8442 19.0621 23.8497 19.0725 23.8534 19.0834C24.0001 19.3222 24.0361 19.5094 23.9641 19.6475C23.8426 19.8758 23.4313 19.9904 23.2918 20H20.7196C20.5405 20 20.1679 19.9545 19.7143 19.6502C19.3678 19.4149 19.0231 19.0275 18.6892 18.6488C18.1906 18.0864 17.7595 17.5984 17.323 17.5984C17.2679 17.5983 17.2131 17.6071 17.161 17.6246C16.8307 17.7261 16.4113 18.1835 16.4113 19.4018C16.4113 19.7831 16.1017 20 15.8848 20H14.7067C14.3053 20 12.2155 19.8636 10.3624 17.9648C8.09168 15.6402 6.05228 10.9769 6.03248 10.9358C5.90558 10.6341 6.17198 10.4697 6.45998 10.4697H9.05738C9.40568 10.4697 9.51908 10.6743 9.59828 10.858C9.69008 11.0687 10.0303 11.9118 10.5883 12.859C11.4919 14.4 12.0472 15.0271 12.4909 15.0271C12.5742 15.0273 12.6562 15.0062 12.7285 14.9659C13.3081 14.6563 13.2001 12.6447 13.1731 12.2302C13.1731 12.1497 13.1722 11.332 12.8752 10.9367C12.6628 10.6533 12.301 10.5431 12.0823 10.5029C12.1408 10.4207 12.265 10.2947 12.4243 10.2204C12.8212 10.028 13.5385 10 14.2504 10H14.6455C15.4177 10.0105 15.6175 10.0586 15.8983 10.1277C16.4635 10.2589 16.4743 10.6148 16.4248 11.827C16.4104 12.1733 16.3951 12.5634 16.3951 13.0226C16.3951 13.1205 16.3906 13.2298 16.3906 13.3409C16.3735 13.9627 16.351 14.6633 16.8028 14.951C16.8614 14.9865 16.9291 15.0053 16.9981 15.0052C17.1547 15.0052 17.6236 15.0052 18.8953 12.8844C19.4533 11.9477 19.8853 10.8431 19.915 10.76C19.9402 10.7137 20.0158 10.5833 20.1076 10.5309C20.1729 10.4971 20.246 10.4802 20.32 10.4819H23.3755C23.7085 10.4819 23.9344 10.5309 23.9785 10.6533C24.0523 10.8518 23.9641 11.4579 22.5691 13.2911C22.3342 13.5963 22.1281 13.8604 21.9472 14.0913C20.6827 15.704 20.6827 15.7854 22.0219 17.0098Z" fill="white"/>
</svg>
