<svg width="48" height="48" viewBox="0 0 48 48" fill="none" xmlns="http://www.w3.org/2000/svg">
<circle cx="24" cy="24" r="24" fill="white"/>
<path fill-rule="evenodd" clip-rule="evenodd" d="M17.284 0.947985C12.6256 2.29749 8.48416 5.01486 5.40067 8.74514C2.31718 12.4754 0.435003 17.0452 0 21.8574H11.0155C11.6541 14.5347 13.7859 7.41864 17.2806 0.944557L17.284 0.947985ZM11.0155 26.1429H0C0.434093 30.9553 2.31547 35.5255 5.39835 39.2564C8.48123 42.9873 12.6223 45.7054 17.2806 47.0557C13.7859 40.5816 11.6541 33.4656 11.0155 26.1429ZM22.8021 47.9711C18.6258 41.38 16.0668 33.9021 15.3322 26.1429H32.6644C31.9298 33.9021 29.3708 41.38 25.1945 47.9711C24.3975 48.0096 23.5991 48.0096 22.8021 47.9711ZM30.7194 47.0523C35.3772 45.7022 39.5179 42.9846 42.6007 39.2543C45.6836 35.5241 47.5652 30.9547 48 26.1429H36.9845C36.3459 33.4656 34.2141 40.5816 30.7194 47.0557V47.0523ZM36.9845 21.8574H48C47.5659 17.045 45.6845 12.4748 42.6016 8.7439C39.5188 5.013 35.3777 2.29486 30.7194 0.944557C34.2142 7.4186 36.346 14.5347 36.9845 21.8574ZM22.8021 0.0291901C23.6002 -0.00973005 24.3998 -0.00973005 25.1979 0.0291901C29.373 6.62055 31.9308 14.0984 32.6644 21.8574H15.3356C16.0826 14.0511 18.6472 6.56703 22.8021 0.0291901Z" fill="#B53131"/>
</svg>
