<svg width="48" height="48" viewBox="0 0 48 48" fill="none" xmlns="http://www.w3.org/2000/svg">
<g clip-path="url(#clip0_131_7)">
<mask id="mask0_131_7" style="mask-type:alpha" maskUnits="userSpaceOnUse" x="0" y="0" width="48" height="48">
<path d="M0 24C0 10.7452 10.7452 0 24 0C37.2548 0 48 10.7452 48 24C48 37.2548 37.2548 48 24 48C10.7452 48 0 37.2548 0 24Z" fill="black"/>
</mask>
<g mask="url(#mask0_131_7)">
<path d="M0 24C0 10.7452 10.7452 0 24 0C37.2548 0 48 10.7452 48 24C48 37.2548 37.2548 48 24 48C10.7452 48 0 37.2548 0 24Z" fill="#B53131"/>
<path fill-rule="evenodd" clip-rule="evenodd" d="M23.2808 0C23.1599 9.72928 22.4958 15.1976 18.8467 18.8467C15.1976 22.4958 9.72928 23.1599 0 23.2808V24.7192C9.72928 24.8401 15.1976 25.5042 18.8467 29.1533C22.4958 32.8024 23.1599 38.2707 23.2808 48H24.7192C24.8401 38.2707 25.5042 32.8024 29.1533 29.1533C32.8024 25.5042 38.2707 24.8401 48 24.7192V23.2808C38.2707 23.1599 32.8024 22.4958 29.1533 18.8467C25.5042 15.1976 24.8401 9.72924 24.7192 0H23.2808Z" fill="white"/>
</g>
</g>
<defs>
<clipPath id="clip0_131_7">
<rect width="48" height="48" fill="white"/>
</clipPath>
</defs>
</svg>
