<svg width="44" height="44" viewBox="0 0 44 44" fill="none" xmlns="http://www.w3.org/2000/svg">
<path d="M35.2319 22.7528C34.8819 22.6885 34.5459 22.9203 34.4817 23.2705C34.4175 23.6206 34.6493 23.9565 34.9994 24.0206C38.6424 24.6886 41.2863 27.8633 41.2863 31.5694C41.2863 35.2946 38.6183 38.408 35.093 39.1001C35.086 39.1012 35.079 39.1016 35.072 39.1029C34.5877 39.1966 34.0962 39.2441 33.6116 39.2441C29.3797 39.2441 25.9368 35.8012 25.9368 31.5694C25.9368 27.815 28.6407 24.6776 32.2238 24.0206C32.5739 23.9565 32.8057 23.6206 32.7415 23.2705C32.6773 22.9203 32.3409 22.6884 31.9913 22.7528C29.937 23.1295 28.156 24.1899 26.8618 25.6718L22.8543 24.1197V21.883C24.3066 20.7712 25.308 19.1003 25.5353 17.1945C27.2613 17.1179 28.5465 15.7369 28.5465 14.095C28.5465 13.3341 28.267 12.6085 27.7701 12.0484V9.21955C27.7703 4.13583 23.6344 0 18.5509 0C13.4673 0 9.33143 4.13583 9.33143 9.21946V12.1215C8.82887 12.6769 8.55533 13.365 8.55533 14.0949C8.55533 15.735 9.83786 17.1176 11.5662 17.1943C11.7926 19.1122 12.8049 20.8525 14.3991 21.9909V24.1196L5.34178 27.6311C5.33774 27.6326 5.3337 27.6342 5.32967 27.6359C5.17025 27.7014 1.42441 29.2917 1.42441 33.6699V42.5399C1.42441 43.345 2.07934 44 2.88449 44C3.2841 44 33.9612 44 34.3859 44C35.1871 44 35.8389 43.3483 35.8389 42.547V40.2533C39.7077 39.2604 42.5755 35.7436 42.5755 31.5696C42.5755 27.241 39.487 23.533 35.2319 22.7528ZM24.7396 26.2322L22.4176 30.8856C22.3862 30.8632 21.8036 30.4494 19.56 28.8559C21.2075 26.8224 20.6557 27.5034 22.415 25.3318L24.7396 26.2322ZM20.2895 30.9555L19.6256 31.9547H17.633L16.9692 30.9555L18.6294 29.7764L20.2895 30.9555ZM15.6883 24.3268V22.718C16.5593 23.0927 17.5924 23.3114 18.6422 23.3114C19.6538 23.3114 20.6555 23.0899 21.5653 22.6653V24.3329L18.6293 27.957L15.6883 24.3268ZM26.634 15.4566C26.341 15.7087 25.9804 15.8588 25.5863 15.8979V12.2923C27.2372 12.4522 27.8135 14.4422 26.634 15.4566ZM11.5157 15.8979C10.5247 15.7998 9.84456 15.0061 9.84456 14.095C9.84456 13.1814 10.6378 12.4656 11.5157 12.3216V15.8979ZM11.5368 11.0191C11.2364 11.0465 10.8793 11.1352 10.6206 11.236V9.21946C10.6206 4.8467 14.178 1.28915 18.5508 1.28915C22.9235 1.28915 26.4811 4.84662 26.4811 9.21946V11.1794C26.1968 11.0783 25.8967 11.017 25.5863 10.9986C25.5863 10.224 25.6805 10.4444 23.4347 8.03507C23.2552 7.8424 23.0446 7.55975 22.5991 7.46616C22.2893 7.40102 21.9567 7.45628 21.6744 7.64079C19.1415 9.29534 15.9631 10.2242 12.91 10.0241C12.1639 9.97485 11.6517 10.3991 11.5368 11.0191ZM12.8049 16.3674C12.8049 15.8275 12.8049 11.8694 12.8049 11.3095C16.0847 11.5291 19.5453 10.5582 22.3368 8.74766C23.5016 9.99917 24.1281 10.6487 24.2973 10.8665C24.2973 17.2961 24.2987 16.152 24.2937 16.5088C24.2185 19.5473 21.7275 22.0223 18.6422 22.0223C15.2099 22.0223 12.8049 19.376 12.8049 16.3674ZM14.8398 25.3334L17.6954 28.8582C16.7651 29.5189 15.3249 30.542 14.8408 30.8858L12.5189 26.2323L14.8398 25.3334ZM8.68054 42.7109V35.0439C8.68054 34.688 8.39205 34.3994 8.03601 34.3994C7.67997 34.3994 7.39148 34.688 7.39148 35.0439V42.7109H2.88449C2.79021 42.7109 2.71356 42.6342 2.71356 42.54V33.6701C2.71356 30.2023 5.64248 28.9038 5.8159 28.8301L11.3113 26.6996L13.7287 31.5444C13.7287 31.5444 13.7287 31.5444 13.7288 31.5445C13.8868 31.8612 14.1744 32.092 14.5177 32.1778C15.1459 32.3349 15.52 31.9846 15.9175 31.7023L16.6092 32.7434L14.9222 42.7109H8.68054ZM28.5832 42.7108H22.3364L21.7579 39.2925C21.6986 38.9416 21.367 38.7056 21.0149 38.7645C20.6639 38.8239 20.4276 39.1567 20.487 39.5076L21.0292 42.7108H16.2297L17.8321 33.2437H19.4269L19.9779 36.4995C20.0372 36.8505 20.3694 37.0869 20.721 37.0275C21.072 36.9682 21.3083 36.6354 21.2489 36.2845L20.6496 32.7434L21.3413 31.7023L21.7471 31.9906C22.3525 32.4207 23.1986 32.2082 23.5299 31.5446C23.5299 31.5446 23.5299 31.5446 23.5299 31.5446L25.9472 26.7L26.0572 26.7425C25.1612 28.1444 24.6478 29.8129 24.6478 31.5697C24.6478 34.6501 26.2099 37.3724 28.5833 38.9866L28.5832 42.7108ZM34.55 42.5471C34.55 42.6375 34.4765 42.7109 34.3861 42.7109H29.8724V39.7152C31.0111 40.2401 32.2778 40.5335 33.6118 40.5335C33.9286 40.5335 34.2415 40.5168 34.55 40.4846L34.55 42.5471Z" fill="#B53131"/>
<path d="M36.6624 29.6649C36.4139 29.41 36.006 29.4047 35.7509 29.6532L33.2168 32.1233L32.1552 31.0827C31.901 30.8336 31.4929 30.8376 31.2437 31.0919C30.9946 31.3461 30.9986 31.7542 31.2528 32.0035L32.7644 33.4848C32.8897 33.6076 33.0526 33.669 33.2155 33.669C33.3779 33.669 33.5402 33.6081 33.6654 33.4861L36.6506 30.5764C36.9056 30.3278 36.9108 29.9198 36.6624 29.6649Z" fill="#B53131"/>
<path d="M33.6117 24.8729C29.9191 24.8729 26.915 27.877 26.915 31.5696C26.915 35.2621 29.9191 38.2663 33.6117 38.2663C37.3043 38.2663 40.3084 35.2621 40.3084 31.5696C40.3084 27.877 37.3043 24.8729 33.6117 24.8729ZM33.6117 36.977C30.63 36.977 28.2042 34.5512 28.2042 31.5695C28.2042 28.5878 30.6299 26.162 33.6117 26.162C36.5934 26.162 39.0192 28.5878 39.0192 31.5695C39.0192 34.5512 36.5934 36.977 33.6117 36.977Z" fill="#B53131"/>
</svg>
