<svg width="44" height="44" viewBox="0 0 44 44" fill="none" xmlns="http://www.w3.org/2000/svg">
<path d="M39.4268 8.09556L22.2708 0.743089C22.0978 0.669011 21.9021 0.669011 21.7291 0.743089L4.57317 8.09556C4.32043 8.20393 4.15646 8.45246 4.15646 8.72746V22.7339C4.15646 27.7442 5.83491 32.3561 9.01021 36.071C12.1196 39.7089 16.3756 42.1693 21.3179 43.1865L21.8614 43.2983C21.9071 43.3078 21.9535 43.3125 22 43.3125C22.0465 43.3125 22.0929 43.3078 22.1386 43.2983L22.6821 43.1865C27.6244 42.1693 31.8804 39.7089 34.9898 36.071C38.1652 32.3561 39.8436 27.7441 39.8436 22.7339V8.72754C39.8436 8.45246 39.6797 8.20393 39.4268 8.09556ZM38.4686 22.7339C38.4686 32.1843 32.013 39.8624 22.4049 41.8398L22 41.9231L21.5952 41.8398C11.987 39.8624 5.53146 32.1843 5.53146 22.7339V9.18078L22 2.1229L38.4686 9.18078V22.7339ZM21.7291 3.67605L7.26895 9.87326C7.01621 9.98163 6.85224 10.2302 6.85224 10.5052V22.7339C6.85224 27.1262 8.32675 31.1556 11.1164 34.3861C13.8291 37.5275 17.5447 39.6576 21.8614 40.5461C21.9071 40.5554 21.9535 40.5602 22 40.5602C22.0465 40.5602 22.0929 40.5554 22.1386 40.5461C26.4554 39.6576 30.1709 37.5275 32.8837 34.3861C35.6733 31.1556 37.1478 27.1262 37.1478 22.7339V10.5052C37.1478 10.2302 36.9839 9.98163 36.7311 9.87326L22.2708 3.67605C22.0978 3.60197 21.9021 3.60197 21.7291 3.67605ZM35.7727 10.9585V22.7339C35.7727 30.8247 30.2443 37.4132 22 39.1702C13.7557 37.4132 8.22732 30.8247 8.22732 22.7339V10.9585L22 5.05595L35.7727 10.9585ZM19.9527 9.13892C19.4111 9.54919 19.1392 9.75518 18.9002 9.84224C18.6611 9.92921 18.3204 9.94622 17.6418 9.97999C17.4706 9.9885 17.2801 9.99804 17.0661 10.0099C15.8822 10.0757 14.9051 10.8957 14.6347 12.0501C14.5858 12.2587 14.5434 12.4448 14.5052 12.6118C14.3541 13.2743 14.2782 13.6069 14.151 13.8272C14.0238 14.0475 13.7738 14.2795 13.2756 14.7416C13.15 14.8582 13.0101 14.988 12.8538 15.1347C11.9892 15.9461 11.7677 17.2023 12.3027 18.2604C12.3993 18.4517 12.4864 18.6215 12.5646 18.774C12.8746 19.3786 13.0302 19.6821 13.0745 19.9327C13.1187 20.1833 13.0762 20.5217 12.9916 21.1959C12.9703 21.3659 12.9466 21.5553 12.9211 21.768C12.7804 22.9454 13.4182 24.05 14.5082 24.5168C14.7052 24.6011 14.8811 24.6753 15.0391 24.7418C15.0626 24.7517 15.0849 24.7612 15.1075 24.7707L12.6176 30.1186C12.5095 30.3508 12.5394 30.6237 12.6952 30.8271C12.851 31.0303 13.1068 31.1303 13.3592 31.086L16.0928 30.6083L17.4869 33.0076C17.6103 33.2199 17.8372 33.3496 18.0813 33.3496C18.0917 33.3496 18.1021 33.3493 18.1125 33.3489C18.3684 33.3373 18.5965 33.1844 18.7047 32.9523L21.2004 27.5914C21.5781 27.4786 21.8091 27.422 21.9999 27.422C22.2544 27.422 22.5803 27.5226 23.2296 27.7229C23.2958 27.7433 23.3658 27.7649 23.4383 27.7872L25.224 31.9333C25.3254 32.1685 25.5491 32.328 25.8044 32.347C25.8215 32.3482 25.8386 32.3488 25.8556 32.3488C26.0921 32.3488 26.3136 32.2269 26.4396 32.0238L27.9028 29.666L30.6213 30.2227C30.8722 30.2742 31.1309 30.1818 31.2924 29.9832C31.4541 29.7845 31.4919 29.5125 31.3907 29.2773L29.3638 24.5713C29.4056 24.5535 29.448 24.5354 29.4919 24.5167C30.5818 24.0499 31.2196 22.9453 31.0789 21.768C31.0534 21.5551 31.0297 21.3658 31.0084 21.1958C30.9238 20.5215 30.8814 20.1832 30.9256 19.9326C30.9697 19.682 31.1254 19.3785 31.4354 18.7739C31.5136 18.6214 31.6007 18.4516 31.6974 18.2602C32.2322 17.202 32.0107 15.9459 31.1462 15.1345C30.9899 14.9878 30.8499 14.858 30.7243 14.7414C30.2262 14.2794 29.9761 14.0473 29.8489 13.827C29.7218 13.6067 29.6459 13.2742 29.4947 12.6117C29.4566 12.4447 29.4141 12.2586 29.3653 12.0499C29.0948 10.8954 28.1177 10.0756 26.9339 10.0097C26.7199 9.99787 26.5293 9.98833 26.3582 9.97982C25.6795 9.94605 25.3389 9.92903 25.0998 9.84207C24.8607 9.75501 24.5889 9.54902 24.0472 9.13875C23.9107 9.0352 23.7585 8.92004 23.5869 8.79157C22.6378 8.08103 21.3622 8.08103 20.413 8.79157C20.2414 8.92013 20.0893 9.03537 19.9527 9.13892ZM18.014 31.1779L17.0408 29.5032C16.8962 29.2543 16.6121 29.122 16.328 29.1714L14.4201 29.5047L16.3126 25.4397C16.4663 25.6158 16.6408 25.8858 16.9227 26.3225C17.0157 26.4664 17.1192 26.6268 17.2365 26.8061C17.7379 27.5727 18.5672 28.0074 19.4417 28.0074C19.4581 28.0074 19.4745 28.0059 19.4908 28.0056L18.014 31.1779ZM27.7092 28.2229C27.427 28.1651 27.139 28.2892 26.9871 28.5339L25.9659 30.1797L25.0126 27.9665C25.7135 27.8433 26.35 27.4382 26.7634 26.8062C26.8807 26.6268 26.9842 26.4664 27.0772 26.3225C27.4458 25.7517 27.6308 25.4652 27.8256 25.3017C27.8984 25.2406 27.988 25.1839 28.1041 25.123L29.6066 28.6116L27.7092 28.2229ZM21.237 9.89242C21.4687 9.71892 21.7344 9.63221 22 9.63221C22.2656 9.63221 22.5313 9.71892 22.763 9.89242C22.9322 10.0191 23.0821 10.1327 23.2169 10.2348C24.5169 11.2198 24.6606 11.2721 26.2898 11.3533C26.4585 11.3617 26.6465 11.3711 26.8575 11.3828C27.4356 11.4149 27.8945 11.7999 28.0266 12.3636C28.0748 12.5695 28.1166 12.7529 28.1542 12.9177C28.5169 14.5079 28.5933 14.6402 29.7891 15.7496C29.913 15.8646 30.051 15.9925 30.2052 16.1372C30.6273 16.5334 30.7313 17.1234 30.4701 17.64C30.3748 17.8287 30.2889 17.9962 30.2118 18.1465C29.4675 19.5979 29.4409 19.7485 29.644 21.367C29.665 21.5346 29.6884 21.7214 29.7135 21.9312C29.7822 22.5061 29.4827 23.0248 28.9505 23.2527C28.7562 23.3359 28.5827 23.409 28.427 23.4747C26.9239 24.1081 26.8068 24.2063 25.9221 25.5765C25.8304 25.7185 25.7283 25.8766 25.6126 26.0536C25.2956 26.5381 24.7328 26.743 24.1785 26.5756C23.9762 26.5145 23.7964 26.4589 23.6349 26.4091C22.0762 25.9281 21.9234 25.9281 20.3649 26.4091C20.2034 26.4589 20.0235 26.5145 19.8212 26.5756C19.267 26.743 18.7041 26.5381 18.3873 26.0536C18.2716 25.8767 18.1695 25.7186 18.0778 25.5766C17.193 24.2063 17.076 24.1081 15.5729 23.4748C15.4172 23.4091 15.2437 23.3361 15.0494 23.2528C14.5172 23.0249 14.2177 22.5062 14.2863 21.9312C14.3114 21.7214 14.3348 21.5346 14.3559 21.367C14.5589 19.7485 14.5323 19.598 13.7881 18.1466C13.711 17.9962 13.6251 17.8288 13.5298 17.6401C13.2685 17.1235 13.3725 16.5336 13.7947 16.1373C13.9489 15.9926 14.0869 15.8647 14.2108 15.7497C15.4065 14.6404 15.4829 14.508 15.8457 12.9177C15.8833 12.7529 15.9252 12.5695 15.9733 12.3637C16.1054 11.8 16.5642 11.415 17.1424 11.3828C17.3535 11.3711 17.5414 11.3617 17.7101 11.3534C19.3392 11.2722 19.4828 11.2199 20.783 10.2349C20.9177 10.1328 21.0678 10.0191 21.237 9.89242ZM15.8246 18.1327C15.8246 21.5378 18.5948 24.3081 21.9999 24.3081C25.405 24.3081 28.1752 21.5378 28.1752 18.1327C28.1752 14.7276 25.405 11.9574 21.9999 11.9574C18.5949 11.9574 15.8246 14.7276 15.8246 18.1327ZM21.9999 13.3324C24.6468 13.3324 26.8002 15.4858 26.8002 18.1327C26.8002 20.7797 24.6468 22.9331 21.9999 22.9331C19.353 22.9331 17.1996 20.7797 17.1996 18.1327C17.1996 15.4858 19.353 13.3324 21.9999 13.3324ZM18.55 17.8232C18.8184 17.5547 19.2537 17.5547 19.5222 17.8232L20.7879 19.0889L24.5018 15.7184C24.783 15.4632 25.2178 15.4843 25.473 15.7655C25.7282 16.0467 25.7071 16.4815 25.4259 16.7367L21.2269 20.5473C21.0955 20.6665 20.9301 20.7257 20.765 20.7257C20.5887 20.7257 20.4127 20.6582 20.2788 20.5244L18.55 18.7955C18.2815 18.5269 18.2815 18.0916 18.55 17.8232Z" fill="#B53131"/>
</svg>
