<svg width="44" height="44" viewBox="0 0 44 44" fill="none" xmlns="http://www.w3.org/2000/svg">
<path d="M12.2416 17.1214H6.8188C6.20631 17.1214 5.7079 17.6198 5.7079 18.2323V23.6553C5.7079 24.2678 6.20631 24.7662 6.8188 24.7662H12.2416C12.854 24.7662 13.3525 24.2678 13.3525 23.6553V18.2323C13.3525 17.6198 12.854 17.1214 12.2416 17.1214ZM6.8188 18.0736H10.7645L10.8365 18.9545L6.6601 19.0363V18.2323C6.6601 18.1449 6.73139 18.0736 6.8188 18.0736ZM6.6601 23.6553V19.9889L11.1164 19.9017C11.5902 19.8927 11.843 19.5973 11.8089 19.1572L11.7201 18.0736H12.2416C12.329 18.0736 12.4003 18.1449 12.4003 18.2323V21.8242L8.22509 21.8508C7.71151 21.8539 7.49561 22.191 7.54906 22.5482L7.73132 23.814H6.8188C6.73139 23.814 6.6601 23.7428 6.6601 23.6553ZM12.2416 23.814H8.69325L8.54745 22.8011L12.4003 22.7765V23.6553C12.4003 23.7428 12.329 23.814 12.2416 23.814Z" fill="#B53131"/>
<path d="M34.1521 19.1732V6.69924C34.1521 6.4364 33.9388 6.22314 33.676 6.22314H3.42132C3.15847 6.22314 2.94522 6.4364 2.94522 6.69924V6.72722C2.68621 6.97201 2.46869 7.20111 2.2153 7.52467C2.31034 13.7161 2.2573 20.4669 2.24223 26.6034C2.45145 26.7036 2.71449 26.8557 2.97284 27.0033C3.03251 27.1982 3.20698 27.3426 3.42132 27.3426H21.5538C21.2321 28.994 21.3731 30.7371 21.9683 32.5197C22.958 35.4836 26.9401 40.4962 34.9988 38.5716C39.6992 37.8652 43.3185 33.8117 43.3185 28.9172C43.3185 23.7324 39.2582 19.4899 34.1521 19.1732ZM33.1999 7.17534V11.0654H3.89742V7.17534H33.1999ZM3.89742 26.3904V15.4017H33.1999V19.1597C32.9141 19.1697 32.631 19.1884 32.3519 19.2225C27.9102 19.0452 23.2033 21.8769 21.7947 26.3904H3.89742ZM33.5436 37.74C28.6785 37.74 24.7206 33.7824 24.7206 28.9172C24.7206 24.0521 28.6785 20.0945 33.5436 20.0945C38.4085 20.0945 42.3663 24.0521 42.3663 28.9172C42.3663 33.7824 38.4085 37.74 33.5436 37.74Z" fill="#B53131"/>
<path d="M36.9966 24.8946C35.2872 26.6905 33.7488 28.6581 32.4185 30.751C31.4291 29.8638 30.4859 28.9116 29.609 27.9148C29.4357 27.7171 29.1344 27.6985 28.9373 27.8714C28.7398 28.045 28.7203 28.3463 28.8942 28.5434C29.9217 29.712 31.0382 30.821 32.2126 31.8389C32.4345 32.0316 32.7762 31.9787 32.9299 31.7286C34.2925 29.5136 35.8928 27.435 37.6862 25.5517C37.8673 25.3607 37.8598 25.0595 37.6695 24.8784C37.4792 24.6968 37.1773 24.7049 36.9966 24.8946Z" fill="#B53131"/>
</svg>
