<svg width="44" height="44" viewBox="0 0 44 44" fill="none" xmlns="http://www.w3.org/2000/svg">
<g clip-path="url(#clip0_16_3)">
<path d="M20.2263 20.7109H19.7966V14.6953C19.7966 14.2207 19.4118 13.836 18.9373 13.836H17.6483C17.1738 13.836 16.7889 14.2207 16.7889 14.6953C16.7889 15.17 17.1738 15.5547 17.6483 15.5547H18.0779V20.7109H17.6482C17.1737 20.7109 16.7888 21.0957 16.7888 21.5703C16.7888 22.0449 17.1737 22.4297 17.6482 22.4297H20.2263C20.7009 22.4297 21.0857 22.0449 21.0857 21.5703C21.0857 21.0957 20.701 20.7109 20.2263 20.7109Z" fill="#B53131"/>
<path d="M24.633 22.6016C26.0546 22.6016 27.2111 21.445 27.2111 20.0234V16.2422C27.2111 14.8206 26.0546 13.6641 24.633 13.6641C23.2115 13.6641 22.0549 14.8206 22.0549 16.2422V20.0234C22.0549 21.445 23.2115 22.6016 24.633 22.6016ZM23.7737 16.2422C23.7737 15.7684 24.1592 15.3828 24.633 15.3828C25.1069 15.3828 25.4924 15.7684 25.4924 16.2422V20.0234C25.4924 20.4973 25.1069 20.8828 24.633 20.8828C24.1592 20.8828 23.7737 20.4973 23.7737 20.0234V16.2422Z" fill="#B53131"/>
<path d="M42.3232 39.2735L43.9227 35.7626C44.0438 35.4965 44.0214 35.1871 43.8634 34.9414C43.7052 34.6955 43.4329 34.5469 43.1406 34.5469H38.3281V31.5391C38.3281 31.0645 37.9433 30.6797 37.4687 30.6797H33.203L33.356 29.489L36.0841 29.1383C36.3187 29.1081 36.5306 28.9825 36.6697 28.791C36.8088 28.5995 36.8628 28.3592 36.8189 28.1267L36.3093 25.4239L38.7955 24.2475C39.0094 24.1463 39.1722 23.9613 39.2452 23.7363C39.3183 23.5112 39.2954 23.2659 39.1819 23.0583L37.8621 20.6453L39.863 18.7581C40.0351 18.5958 40.1328 18.3696 40.1328 18.1329C40.1328 17.8962 40.0351 17.6701 39.863 17.5077L37.8621 15.6206L39.1819 13.2075C39.2954 12.9999 39.3183 12.7546 39.2452 12.5296C39.172 12.3045 39.0094 12.1195 38.7955 12.0183L36.3093 10.8419L36.8189 8.13911C36.8628 7.90656 36.8088 7.66628 36.6697 7.47481C36.5306 7.28335 36.3187 7.15779 36.084 7.12754L33.356 6.77692L33.0055 4.04884C32.9752 3.81415 32.8497 3.60223 32.6582 3.46318C32.4666 3.32405 32.2263 3.27008 31.9939 3.31399L29.2911 3.82352L28.1146 1.33735C28.0134 1.12346 27.8284 0.960778 27.6034 0.887645C27.3785 0.814598 27.1332 0.837372 26.9254 0.950981L24.5124 2.2708L22.6253 0.269757C22.4629 0.0975387 22.2367 0 22 0C21.7633 0 21.5372 0.0975387 21.3748 0.269757L19.4877 2.27072L17.0747 0.950895C16.8672 0.837372 16.6219 0.814598 16.3967 0.887559C16.1717 0.960692 15.9867 1.12337 15.8855 1.33727L14.709 3.82334L12.0062 3.31382C11.7739 3.27008 11.5333 3.32396 11.3419 3.4631C11.1505 3.60223 11.0249 3.81406 10.9946 4.04884L10.6441 6.77683L7.91603 7.12754C7.68142 7.15771 7.4695 7.28335 7.33045 7.47481C7.19132 7.66628 7.13735 7.90665 7.18118 8.13911L7.69079 10.8419L5.20463 12.0183C4.99073 12.1195 4.82796 12.3045 4.75492 12.5296C4.68179 12.7546 4.70473 12.9999 4.81825 13.2075L6.13799 15.6205L4.13712 17.5077C3.96498 17.6701 3.86736 17.8962 3.86736 18.1329C3.86736 18.3696 3.96498 18.5958 4.13712 18.7581L6.13799 20.6452L4.81825 23.0583C4.70473 23.2659 4.68179 23.5112 4.75492 23.7363C4.82814 23.9613 4.99073 24.1463 5.20463 24.2475L7.69079 25.4239L7.18118 28.1267C7.13735 28.3593 7.19132 28.5995 7.33045 28.791C7.4695 28.9825 7.68142 29.108 7.91612 29.1383L10.6441 29.4889L10.7972 30.6797H6.53132C6.05678 30.6797 5.67195 31.0645 5.67195 31.5391V34.5469H0.859386C0.567114 34.5469 0.294865 34.6955 0.136655 34.9414C-0.0214697 35.1871 -0.0438994 35.4965 0.077358 35.7626L1.67682 39.2735L0.077358 42.7843C-0.0438134 43.0504 -0.0213838 43.3598 0.136655 43.6055C0.294865 43.8514 0.567114 44 0.859386 44H10.3985C10.873 44 11.2579 43.6153 11.2579 43.1406V40.1328H32.7422V43.1406C32.7422 43.6153 33.127 44 33.6015 44H43.1406C43.4329 44 43.7052 43.8514 43.8634 43.6055C44.0215 43.3598 44.0439 43.0504 43.9227 42.7843L42.3232 39.2735ZM7.3907 32.3985H18.1325C18.607 32.3985 18.9919 32.0137 18.9919 31.5391C18.9919 31.0645 18.607 30.6797 18.1325 30.6797H12.5299L12.264 28.6116C12.2143 28.2238 11.9089 27.9187 11.5212 27.8687L9.03871 27.5497L9.50243 25.09C9.57487 24.7059 9.37885 24.3212 9.02548 24.154L6.76318 23.0836L7.96424 20.8876C8.15184 20.5447 8.0843 20.1183 7.79993 19.8501L5.97909 18.1328L7.79993 16.4155C8.08438 16.1473 8.15184 15.7209 7.96424 15.3779L6.76318 13.1821L9.02557 12.1115C9.37885 11.9442 9.57496 11.5597 9.50252 11.1754L9.0388 8.71592L11.5214 8.39683C11.9092 8.34699 12.2143 8.04174 12.2643 7.65399L12.5833 5.17153L15.0428 5.63524C15.4271 5.70726 15.8115 5.51167 15.9788 5.15829L17.0494 2.89591L19.2453 4.09697C19.5884 4.28457 20.0147 4.21694 20.2829 3.93266L22.0001 2.11182L23.7173 3.93266C23.9855 4.21702 24.4119 4.28448 24.7549 4.09697L26.9508 2.89591L28.0214 5.15829C28.1886 5.51158 28.5731 5.70769 28.9574 5.63516L31.417 5.17144L31.736 7.65391C31.7859 8.04166 32.0911 8.34682 32.4789 8.39675L34.9614 8.71583L34.4977 11.1754C34.4252 11.5596 34.6213 11.9442 34.9746 12.1115L37.237 13.182L36.036 15.3779C35.8484 15.7209 35.9159 16.1472 36.2003 16.4155L38.0211 18.1327L36.2003 19.85C35.9158 20.1182 35.8484 20.5447 36.036 20.8876L37.237 23.0835L34.9746 24.1541C34.6213 24.3213 34.4252 24.7059 34.4977 25.0901L34.9614 27.5497L32.4789 27.8687C32.091 27.9186 31.7859 28.2238 31.7359 28.6116L31.4702 30.6797H25.8669C25.3924 30.6797 25.0076 31.0644 25.0076 31.539C25.0076 32.0137 25.3924 32.3984 25.8669 32.3984H36.6094V38.414H7.39078L7.3907 32.3985ZM9.53913 42.2813H2.19528L3.4033 39.6298C3.50634 39.4034 3.50634 39.1435 3.4033 38.9172L2.19528 36.2657H5.67195V39.2735C5.67195 39.7481 6.05678 40.1328 6.53132 40.1328H9.53913V42.2813ZM40.5968 39.6298L41.8048 42.2813H34.461V40.1328H37.4688C37.9433 40.1328 38.3282 39.7481 38.3282 39.2735V36.2657H41.8048L40.5968 38.9172C40.4937 39.1435 40.4937 39.4034 40.5968 39.6298Z" fill="#B53131"/>
<path d="M33.6015 34.5469H10.3985C9.92393 34.5469 9.53911 34.9316 9.53911 35.4063C9.53911 35.8809 9.92393 36.2656 10.3985 36.2656H33.6015C34.0761 36.2656 34.4609 35.8809 34.4609 35.4063C34.4609 34.9316 34.0761 34.5469 33.6015 34.5469Z" fill="#B53131"/>
<path d="M33.6015 18.1328C33.6015 11.7358 28.3971 6.53131 22 6.53131C15.6029 6.53131 10.3984 11.7358 10.3984 18.1328C10.3984 24.5299 15.6029 29.7343 22 29.7343C28.3971 29.7343 33.6015 24.53 33.6015 18.1328ZM12.1171 18.1328C12.1171 12.6834 16.5505 8.25005 22 8.25005C27.4494 8.25005 31.8828 12.6835 31.8828 18.1328C31.8828 23.5822 27.4494 28.0156 22 28.0156C16.5505 28.0157 12.1171 23.5823 12.1171 18.1328Z" fill="#B53131"/>
<path d="M21.9993 30.6797C21.5248 30.6797 21.1403 31.0645 21.1403 31.5391C21.1403 32.0138 21.5254 32.3985 22 32.3985C22.4746 32.3985 22.8594 32.0138 22.8594 31.5391C22.8594 31.0645 22.4746 30.6797 22 30.6797H21.9993Z" fill="#B53131"/>
</g>
<defs>
<clipPath id="clip0_16_3">
<rect width="44" height="44" fill="white"/>
</clipPath>
</defs>
</svg>
