<svg id="prefix___Слой_2" data-name="Слой 2" xmlns="http://www.w3.org/2000/svg" viewBox="0 0 30 30"><defs><style>.prefix__cls-1{fill:#b53131;stroke-width:0}</style></defs><g id="prefix___Слой_1-2" data-name="Слой 1"><path class="prefix__cls-1" d="M14.65 13.84c.21.14.48.14.69 0l6.85-4.46v1.53c0 .21-.11.41-.29.53l-6.57 4.28a.62.62 0 01-.69 0l-6.57-4.28a.643.643 0 01-.29-.53V9.38l6.85 4.46z"/><path class="prefix__cls-1" d="M15 0C6.72 0 0 6.72 0 15s6.72 15 15 15 15-6.72 15-15S23.28 0 15 0zm9 20.62c0 .52-.18.96-.53 1.33-.35.37-.77.55-1.27.55H7.8c-.5 0-.92-.18-1.27-.55-.35-.37-.53-.81-.53-1.33V9.38c0-.52.18-.96.53-1.33.35-.37.78-.55 1.27-.55h14.4c.49 0 .92.18 1.27.55.35.37.53.81.53 1.33v11.24z"/></g></svg>